<svg xmlns="http://www.w3.org/2000/svg" xmlns:xlink="http://www.w3.org/1999/xlink" viewBox="0 0 34.24 27.99"><defs><style>.cls-1{fill:url(#Gradiente_sem_nome_5);}.cls-2{fill:#fff;}</style><linearGradient id="Gradiente_sem_nome_5" x1="17.18" y1="-2.07" x2="17.05" y2="39.13" gradientUnits="userSpaceOnUse"><stop offset="0" stop-color="#9bafd9"/><stop offset="1" stop-color="#103783"/></linearGradient></defs><g id="Camada_2" data-name="Camada 2"><g id="Camada_1-2" data-name="Camada 1"><path class="cls-1" d="M32.45,11.28A5.53,5.53,0,0,0,33.67,8.1c.19-3.27-2.36-6.21-2.65-6.54L29.62,0,21.81,7.7H12.4L4.58,0,3.19,1.56C2.9,1.88.35,4.83.54,8.1a5.45,5.45,0,0,0,1.24,3.2A9.14,9.14,0,0,0,15.21,23.56L17.13,28l1.92-4.42a9.14,9.14,0,0,0,13.4-12.29Z"/><circle class="cls-2" cx="25.34" cy="17.01" r="3.94"/><path class="cls-2" d="M25.1,8.66a8.27,8.27,0,0,0-1.66.18v0H10.68a7.61,7.61,0,0,0-1.52-.15,8.16,8.16,0,1,0,6.37,13.23l1.61,3.7,1.6-3.69A8.15,8.15,0,1,0,25.1,8.66ZM20.94,9.81a8.14,8.14,0,0,0-3.81,5.29,8.17,8.17,0,0,0-3.81-5.29Zm-3.44,10-.25,0a2.1,2.1,0,0,0-.51.06,9.32,9.32,0,0,0,.39-1.27A8.71,8.71,0,0,0,17.5,19.76Zm-8.34,4a6.91,6.91,0,1,1,6.9-6.91A6.91,6.91,0,0,1,9.16,23.72Zm8-.14-1.07-2.45c.09-.14.16-.28.24-.42a1.61,1.61,0,0,1,1.57-.11c.1.18.2.37.31.54Zm8,.14A6.91,6.91,0,1,1,32,16.81,6.91,6.91,0,0,1,25.1,23.72Z"/><circle class="cls-2" cx="8.79" cy="17.01" r="3.94"/><path class="cls-2" d="M30.28,2.34l-.69-.78L21.71,9.31l1.78.5.28-1h-.06L29.61,3s4.21,4.69.83,7.69l-.28,1,.45.13.41-.36a4.69,4.69,0,0,0,1.66-3.31C32.85,5.23,30.39,2.46,30.28,2.34Z"/><path class="cls-2" d="M3.94,2.34l.7-.78,7.87,7.75-1.78.5-.27-1h0L4.61,3S.4,7.68,3.78,10.68l.28,1-.45.13-.41-.36A4.64,4.64,0,0,1,1.55,8.15C1.37,5.23,3.83,2.46,3.94,2.34Z"/></g></g></svg>